<svg xmlns="http://www.w3.org/2000/svg" width="2000" viewBox="0 0 1500 450" height="600" version="1.0"><path d="M936.269 329.266c-16.586 0-30.939-2.556-43.063-7.657q-18.19-7.67-28.234-22.639-10.05-14.965-10.453-36.703h40.594q.544 10.395 5.874 17.578c3.563 4.781 8.348 8.383 14.36 10.797q9.03 3.608 20.656 3.608 11.202 0 19.61-3.281c5.601-2.188 9.953-5.239 13.046-9.157q4.655-5.872 4.657-13.53 0-6.969-4.032-11.75-4.032-4.793-11.89-8.204-7.861-3.42-19.485-6.031l-22.14-5.469q-26.8-6.28-41.5-19.875c-9.805-9.07-14.703-20.992-14.703-35.765q-.002-18.45 9.906-32.266 9.92-13.81 27.219-21.531 17.296-7.719 39.718-7.72 22.687.002 39.579 7.798 16.887 7.781 26.312 21.734 9.434 13.94 9.844 32.39h-40.188q-1.095-12.7-10.594-19.812-9.502-7.108-25.234-7.11-10.518.001-18.172 3.079-7.659 3.065-11.703 8.469-4.03 5.407-4.031 12.375 0 7.252 4.312 12.11 4.31 4.845 11.891 8.062 7.593 3.204 17.031 5.39l18.594 4.516q13.53 3.001 24.813 8 11.28 4.986 19.484 12.094 8.202 7.113 12.578 16.828 4.373 9.705 4.375 22.14c0 12.493-3.148 23.36-9.437 32.61q-9.44 13.875-27.079 21.406c-11.75 5.008-25.922 7.516-42.514 7.516m141.62-93.893v77.39h-36.373V177.997h34.672l.484 33.938h-3.047q5.482-17.092 16.531-26.484 11.047-9.406 28.39-9.407c9.352 0 17.532 2.04 24.532 6.11q10.499 6.093 16.234 17.578c3.82 7.648 5.735 16.84 5.735 27.578v85.453h-36.375v-78.984q0-12.81-6.469-19.954c-4.312-4.757-10.336-7.14-18.062-7.14q-7.69 0-13.61 3.36-5.924 3.362-9.281 9.702-3.361 6.345-3.36 15.625m155.516 79.954q-12.938-.002-23.203-4.516c-6.836-3.008-12.203-7.504-16.11-13.484q-5.86-8.983-5.86-22.282-.001-11.356 4.157-18.922 4.154-7.56 11.36-12.203 7.2-4.64 16.406-7.015c6.144-1.594 12.597-2.711 19.36-3.36q11.84-1.218 19.03-2.25c4.801-.695 8.301-1.781 10.5-3.25 2.196-1.469 3.297-3.664 3.297-6.594v-.609q-.002-5.607-2.5-9.578-2.502-3.967-7.265-6.094-4.752-2.14-11.594-2.14-6.956 0-12.14 2.14c-3.462 1.418-6.266 3.328-8.423 5.735q-3.235 3.597-4.578 8.109l-33.578-4.266q2.812-12.215 10.75-20.875 7.936-8.669 20.266-13.25 12.328-4.577 28.078-4.578c7.644 0 14.906.899 21.781 2.688 6.875 1.793 12.992 4.558 18.36 8.297q8.06 5.612 12.64 14.218 4.577 8.614 4.578 20.579v90.937h-34.781v-18.797h-1.094q-3.298 6.344-8.734 11.172-5.44 4.815-13 7.5-7.565 2.686-17.703 2.688m10.25-25.516q8.672.002 15.14-3.406 6.47-3.421 10.125-9.157 3.67-5.747 3.672-12.953v-14.281q-1.705.985-4.765 1.969-3.05.972-6.954 1.703c-2.605.492-5.23.937-7.874 1.344q-3.973.611-7.266 1.093-6.598.972-11.719 3.11c-3.418 1.43-6.062 3.343-7.937 5.75-1.868 2.398-2.797 5.386-2.797 8.968q0 5.128 2.625 8.672c1.75 2.356 4.148 4.141 7.203 5.36q4.575 1.827 10.547 1.828m94.975 73.984V177.997h35.764v21.735h1.594q2.796-5.747 7.672-11.172 4.887-5.436 12.516-8.969 7.638-3.546 18.5-3.547 15.498.001 28.015 8c8.344 5.324 14.992 13.137 19.953 23.438q7.453 15.44 7.453 38.015 0 22.22-7.265 37.735-7.268 15.503-19.844 23.672-12.562 8.173-28.547 8.172-10.5 0-18.078-3.47-7.564-3.48-12.515-8.843-4.94-5.374-7.859-11.234h-.984v72.264Zm64.937-78.015q9.53 0 16-5.063 6.468-5.063 9.813-14.156 3.358-9.094 3.359-21.188 0-11.95-3.36-20.984-3.344-9.028-9.812-14.031-6.47-5.016-16-5.016-9.281 0-15.937 4.953-6.645 4.94-10.125 13.906-3.47 8.973-3.47 21.172 0 12.222 3.532 21.25 3.544 9.035 10.188 14.094 6.655 5.063 15.812 5.063m0 0" fill="#27b4f2"/><path d="M103.641 315.451q-22.221-.001-38.454-6.829-16.236-6.843-25.218-20.203-8.97-13.373-9.328-32.781h36.25c.32 6.18 2.07 11.406 5.25 15.688q4.762 6.408 12.812 9.64 8.062 3.234 18.438 3.235 10.014 0 17.515-2.922 7.498-2.937 11.656-8.188 4.156-5.25 4.157-12.094 0-6.217-3.61-10.484-3.595-4.28-10.625-7.328c-4.68-2.031-10.476-3.82-17.39-5.375l-19.766-4.875q-23.938-5.625-37.062-17.766c-8.743-8.094-13.11-18.734-13.11-31.922q-.001-16.483 8.844-28.812 8.858-12.328 24.297-19.219c10.289-4.601 22.11-6.906 35.453-6.906q20.263 0 35.344 6.969 15.075 6.954 23.5 19.406 8.419 12.457 8.781 28.922H135.5q-.984-11.343-9.469-17.688c-5.656-4.238-13.164-6.36-22.515-6.36q-9.409.002-16.25 2.75c-4.555 1.837-8.032 4.36-10.438 7.579q-3.596 4.815-3.594 11.031 0 6.487 3.844 10.813 3.843 4.33 10.625 7.203 6.779 2.86 15.203 4.812l16.594 4.032c8.063 1.793 15.445 4.171 22.156 7.14q10.079 4.454 17.39 10.813 7.327 6.344 11.235 15.015 3.904 8.659 3.906 19.766c0 11.156-2.808 20.867-8.421 29.125-5.618 8.25-13.672 14.617-24.172 19.094-10.5 4.476-23.153 6.719-37.953 6.719m95.447 46.265 6.594-27.828 7.078.969q6.718 1.466 11.782.484 5.061-.97 8.172-4.578 3.122-3.597 4.093-9.937l1.594-7.813-50.906-135.016h38.578l22.703 69.22a267 267 0 0 1 6.89 25.937 1120 1120 0 0 0 6.048 26.906h-8.797q3.293-13.904 6.594-26.969a402 402 0 0 1 7.453-25.875l23.562-69.219h38.203l-57.734 151.736q-4.16 10.856-10.453 18.672-6.284 7.81-15.438 11.968-9.141 4.156-22.093 4.157-6.956 0-13.25-.797-6.283-.797-10.672-2.016m184.324-126.344v77.39H347.04V177.997h34.672l.484 33.938h-3.047q5.482-17.092 16.531-26.484 11.047-9.406 28.39-9.407c9.352 0 17.532 2.04 24.532 6.11q10.499 6.093 16.234 17.578c3.82 7.648 5.735 16.84 5.735 27.578v85.453h-36.375v-78.984q0-12.81-6.469-19.954c-4.312-4.757-10.336-7.14-18.062-7.14q-7.69 0-13.61 3.36-5.924 3.362-9.281 9.702-3.361 6.345-3.36 15.625m186.282-57.375v27.953h-81.798v-27.953Zm-62.141-33.078h36.375v127.922q-.001 6.47 2.875 9.469c1.914 1.992 5.11 2.984 9.578 2.984q2.451 0 6.297-.422 3.842-.433 5.922-.797l4.014 27.705c-3.656.898-7.48 1.523-11.469 1.89q-5.987.563-11.593.563-20.753 0-31.375-9.578-10.627-9.593-10.625-28.032Zm124.514 170.407q-12.938-.002-23.203-4.516c-6.836-3.008-12.203-7.504-16.11-13.484q-5.86-8.983-5.86-22.282-.001-11.356 4.157-18.922 4.154-7.56 11.36-12.203 7.2-4.64 16.406-7.015c6.144-1.594 12.597-2.711 19.36-3.36q11.84-1.218 19.03-2.25c4.801-.695 8.301-1.781 10.5-3.25 2.196-1.469 3.297-3.664 3.297-6.594v-.609q-.002-5.607-2.5-9.578-2.502-3.967-7.265-6.094-4.752-2.14-11.594-2.14-6.956 0-12.14 2.14c-3.462 1.418-6.266 3.328-8.423 5.735q-3.235 3.597-4.578 8.109l-33.578-4.266q2.812-12.215 10.75-20.875 7.936-8.669 20.266-13.25 12.328-4.577 28.078-4.578c7.644 0 14.906.899 21.781 2.688 6.875 1.793 12.992 4.558 18.36 8.297q8.06 5.612 12.64 14.218 4.577 8.614 4.578 20.579v90.937H672.6v-18.797h-1.094q-3.298 6.344-8.734 11.172-5.44 4.815-13 7.5-7.565 2.686-17.703 2.688m10.25-25.516q8.672.002 15.14-3.406 6.47-3.421 10.125-9.157 3.67-5.747 3.672-12.953v-14.281q-1.705.985-4.765 1.969-3.05.972-6.954 1.703c-2.605.492-5.23.937-7.874 1.344q-3.973.611-7.266 1.093-6.598.972-11.719 3.11c-3.418 1.43-6.062 3.343-7.937 5.75-1.868 2.398-2.797 5.386-2.797 8.968q0 5.128 2.625 8.672c1.75 2.356 4.148 4.141 7.203 5.36q4.575 1.827 10.547 1.828m84.349 22.953 52.61-82.031-.234 25.64-49.688-78.375h39.438l12.203 20.75a336 336 0 0 1 10.25 19.782 665 665 0 0 0 9.406 19.03h-13.437a370 370 0 0 0 9.593-19.03q4.577-9.762 10.438-19.782l12.562-20.75h38.828l-50.672 78.736.126-25.39 52.5 81.42h-39.313l-14.656-24.422a318 318 0 0 1-10.5-19.578 695 695 0 0 0-9.516-18.75h13.063a411 411 0 0 0-9.282 18.75q-4.518 9.704-10.25 19.578l-14.529 24.422Zm0 0" fill="#fff"/></svg>